<svg xmlns="http://www.w3.org/2000/svg" width="3354.85" height="1200.59" viewBox="0 0 3354.85 1200.59"><defs><style>.cls-1{fill:#9b2929;stroke-width:16px;}.cls-1,.cls-2,.cls-3,.cls-6{stroke:#fff;}.cls-1,.cls-2,.cls-3,.cls-4,.cls-6{stroke-miterlimit:10;}.cls-2,.cls-3,.cls-5{fill:#231f20;}.cls-2{stroke-width:8px;}.cls-3{stroke-width:18px;}.cls-4,.cls-7{fill:#fff;}.cls-4{stroke:#231f20;}.cls-6{fill:none;stroke-width:4px;}</style></defs><g id="Layer_2" data-name="Layer 2"><g id="Layer_1-2" data-name="Layer 1"><polygon class="cls-1" points="1222.79 224.94 12.76 10.39 104.5 240.43 809.98 365.53 681.17 467.8 73.22 350.24 117.86 515.49 529.24 588.43 404.32 687.62 99.81 633.62 117.58 726.11 321.97 753.01 120.6 858.08 73.22 1183.9 1210.39 421.01 1222.79 224.94"/><path class="cls-2" d="M617.17,813.82C573,805.11,532,787.14,494.83,760.91c-34.46-24.35-64.32-54.94-89.18-90.82a414.8,414.8,0,0,1-55.44-115,452.43,452.43,0,0,1,0-262.79,414.53,414.53,0,0,1,55.44-115c24.86-35.89,54.72-66.48,89.18-90.83C532,60.28,573,42.31,617.17,33.61A303.59,303.59,0,0,1,664.79,28a299.48,299.48,0,0,1,92,10.93c46.72,13,90.45,36.9,129.42,71.43,40.36,35.76,73.09,80.71,96.53,133.4,24.8,55.75,37.58,116.58,37.58,179.92S1007.5,547.88,982.7,603.63c-23.44,52.69-56.17,97.64-96.53,133.41-39,34.52-82.7,58.4-129.42,71.42A299.62,299.62,0,0,1,617.17,813.82Z"/><path class="cls-2" d="M559.53,830.35c-44.17-8.88-85.21-27.23-122.33-54-34.46-24.87-64.33-56.1-89.19-92.74a427.2,427.2,0,0,1-55.43-117.4,471,471,0,0,1,0-268.32A427.2,427.2,0,0,1,348,180.48c24.86-36.64,54.73-67.87,89.19-92.74,37.12-26.78,78.16-45.13,122.33-54A299.27,299.27,0,0,1,607.15,28a293.74,293.74,0,0,1,92,11.17c46.73,13.29,90.46,37.67,129.42,72.92,40.36,36.52,73.1,82.41,96.54,136.22,24.8,56.92,37.57,119,37.57,183.7s-12.77,126.78-37.57,183.7c-23.44,53.8-56.18,99.7-96.54,136.22-39,35.25-82.69,59.63-129.42,72.92A293.68,293.68,0,0,1,559.53,830.35Z"/><path class="cls-3" d="M477,844.42c-44.17-9-85.21-27.56-122.33-54.67-34.46-25.16-64.33-56.77-89.19-93.85a434.81,434.81,0,0,1-55.43-118.81,482.47,482.47,0,0,1,0-271.56,434.81,434.81,0,0,1,55.43-118.81c24.86-37.08,54.73-68.69,89.19-93.85C391.83,65.76,432.87,47.19,477,38.2a295,295,0,0,1,47.62-5.76,290.48,290.48,0,0,1,92,11.29C663.35,57.19,707.08,81.86,746,117.54c40.37,37,73.1,83.4,96.54,137.85,24.8,57.61,37.57,120.47,37.57,185.92s-12.77,128.31-37.57,185.91c-23.44,54.46-56.17,100.9-96.54,137.86-39,35.68-82.69,60.35-129.41,73.81A290.48,290.48,0,0,1,477,844.42Z"/><path class="cls-4" d="M750.52,437.31c0,185.41-129.57,315.79-269.68,294.25C358.62,712.78,270.44,582,270.44,437.31s88.18-275.47,210.4-294.26C621,121.52,750.52,251.9,750.52,437.31Z"/><g id="_Radial_Repeat_" data-name="&lt;Radial Repeat&gt;"><path class="cls-5" d="M482.51,499.12c-4.43-9.17-22.22-10.05-26-1.41,0,0-60.89,145.4-42.54,170,23.43,31.35,109,47.91,120.58,22.47C548.75,659,482.51,499.12,482.51,499.12Z"/></g><g id="_Radial_Repeat_2" data-name="&lt;Radial Repeat&gt;"><path class="cls-5" d="M443.83,476.66c2.8-9.71-7.73-27.23-15.32-25.6,0,0-121.26,29.41-123.1,60.16-2.29,38.28,40.34,121.1,60.83,118C391.63,625.43,443.83,476.66,443.83,476.66Z"/></g><g id="_Radial_Repeat_3" data-name="&lt;Radial Repeat&gt;"><path class="cls-5" d="M433.31,425.89c7.7-3.35,11.85-24.74,6-31.18,0,0-96.59-102.33-115.91-83.34-23.52,23.12-41.83,116.41-27.12,133.76C314.42,466.48,433.31,425.89,433.31,425.89Z"/></g><g id="_Radial_Repeat_4" data-name="&lt;Radial Repeat&gt;"><path class="cls-5" d="M458.08,383.23c7,5.5,23.23-4.29,23.66-14.4,0,0,4.42-174.44-21.43-181.3-31.3-8.32-102.94,41.08-103.63,69C355.86,290.12,458.08,383.23,458.08,383.23Z"/></g><g id="_Radial_Repeat_5" data-name="&lt;Radial Repeat&gt;"><path class="cls-5" d="M501.07,380.17c.86,10.63,17.44,20.51,24.33,14.37,0,0,124.63-116,113.07-149.48-14.24-41.27-98-83.63-118.17-62.67C496.5,207.13,501.07,380.17,501.07,380.17Z"/></g><g id="_Radial_Repeat_6" data-name="&lt;Radial Repeat&gt;"><path class="cls-5" d="M530.07,421.13c-6.39,7.61-2.52,30.07,5.71,33,0,0,154.2,50.14,171.35,17.87,21.79-41,2.15-158.39-26.41-165.09C647.23,299,530.07,421.13,530.07,421.13Z"/></g><g id="_Radial_Repeat_7" data-name="&lt;Radial Repeat&gt;"><path class="cls-5" d="M521.51,475c-8.76-1.51-20.55,15.73-17.34,25.25,0,0,59.78,167.81,89.67,166.13C632.42,664.2,700,581.87,688.1,550.91,673.88,514,521.51,475,521.51,475Z"/></g><path class="cls-6" d="M477,784.25c-38.13-6.68-73.78-21.77-106.2-44.44-30.25-21.16-56.59-48.13-78.6-80.07a372,372,0,0,1-49.36-103.33,415.17,415.17,0,0,1,0-238.2,371.84,371.84,0,0,1,49.36-103.33c22-31.94,48.35-58.91,78.6-80.07,32.42-22.67,68.07-37.76,106.2-44.45a247.4,247.4,0,0,1,119,8.1c39.31,12.52,75.86,34.41,108.25,65.37,33.37,31.89,60.29,71.47,79.5,117.48,20.25,48.52,30.66,101.22,30.66,156s-10.41,107.48-30.66,156c-19.21,46-46.13,85.59-79.5,117.48-32.39,31-68.94,52.84-108.25,65.37A247.28,247.28,0,0,1,477,784.25Z"/><path class="cls-7" d="M1452.83,291.38v87.17H1401V158.6h96.68q26.74,0,42.94,6.2t26.83,22.79A66.9,66.9,0,0,1,1578,224.46q0,39.61-38.19,56.85l40.6,97.24h-56.93l-33.78-87.17Zm0-93.62v56.07h31.59q15.46,0,22.47-2.17t12.49-9.67a28.36,28.36,0,0,0,5.48-17.16,26.61,26.61,0,0,0-5.48-16.44q-5.48-7.24-11.92-8.94t-24.17-1.69Z"/><path class="cls-7" d="M1756.09,305.23H1651.35q-.16,4.35-.16,7.58,0,17.4,9.26,26.26a30.93,30.93,0,0,0,22.16,8.86q24,0,28.84-25.62l43.51,3.23q-18.21,56.4-74,56.39-24.33,0-41.33-9.75t-28-28.44q-11-18.69-11-44.79,0-38.83,22.16-62.68t57-23.85q31.43,0,53.9,22.16T1756.09,305.23Zm-104.9-27.87H1709q-2.26-33.51-27.56-33.52Q1654.42,243.84,1651.19,277.36Z"/><path class="cls-7" d="M1927.85,378.55h-48V287.19q0-16.6-1.29-22.72a18.42,18.42,0,0,0-6.29-10.4,18.69,18.69,0,0,0-12.56-4.27q-25.31,0-25.3,37.39v91.36h-48V215.81H1831v27.55q11.13-19.67,21.92-25.3a49.66,49.66,0,0,1,23.36-5.64q23.2,0,37.38,12.49T1927.85,274Z"/><path class="cls-7" d="M2130.08,219.51a63.45,63.45,0,0,0-12.73-1.61q-16,0-18.69,14.18,13.05,13.69,13.05,30.94,0,23-19.26,36.74t-55.51,13.69A128.18,128.18,0,0,1,2011.8,311q-8.21,4.85-8.21,12.42,0,8.38,6.93,11.13t33.35,4q37.55,1.94,51.72,4.67a42.67,42.67,0,0,1,23.85,13.21q9.67,10.48,9.67,26.11,0,22.4-20.71,37.86T2035,435.91q-49.47,0-66.71-10.72T1951.06,398q0-21.78,27.87-29.36-20.62-10.31-20.62-29,0-23.37,32.55-36.42Q1962,291.31,1962,263.46q0-22.71,19.9-36.87t55-14.17a132.46,132.46,0,0,1,43,7.09q1.45-13.86,8.14-22.8t28.44-8.94a68.9,68.9,0,0,1,13.54,1.29ZM2004.55,377.42q-2.9,0-7.33,3.87a12,12,0,0,0-4.43,9.34q0,11,14,13.7a173,173,0,0,0,32.87,2.74q24.66,0,34.56-3.71t9.91-11.92q0-6.29-8.29-9.67t-44.24-3.38l-9.66.16a94.21,94.21,0,0,1-11.93-.48A30.66,30.66,0,0,0,2004.55,377.42Zm32-139.06q-12.37,0-19.36,6.69t-7,17.64q0,24.82,26.51,24.82,12.85,0,20.16-7.25a24.56,24.56,0,0,0,.4-34.56Q2050.36,238.37,2036.54,238.36Z"/><path class="cls-7" d="M2292,378.55h-46.56q-2.26-9.68-2.26-25.46-12.22,17.4-24.37,23.12a63.94,63.94,0,0,1-27.59,5.72q-22.86,0-36.93-12.4t-14.07-33.36a51.51,51.51,0,0,1,8.2-28.2q8.21-12.89,26.39-20.22t66.28-10.88v-9.34q0-23.68-23.62-23.69-25.21,0-28.11,23.69l-44.31-4.19q4.35-27.72,26.27-39.32t49.63-11.6a122,122,0,0,1,31.25,3.87q14.67,3.87,22.89,11.6t11.11,16.35q2.91,8.63,2.9,30.06v73.8Q2289.11,369.37,2292,378.55Zm-50.91-78q-50.28,5-50.28,30.46a22,22,0,0,0,5.3,14.74q5.31,6.21,15.1,6.2,12.69,0,21.28-10.55t8.6-26Z"/><path class="cls-7" d="M2450.57,255.12l-35,9.35q-6.12-22.08-31.74-22.08-24.17,0-24.17,14.69a11.21,11.21,0,0,0,4.43,9.29q4.43,3.47,23.12,5.86,27.89,3.67,41.25,8.51A42.42,42.42,0,0,1,2449.68,297q7.82,11.44,7.82,28.19,0,25.14-19.1,40.93T2385,381.93q-62.2,0-74.28-48.18l40.44-6q5,21.91,36.09,21.92,11.93,0,20.15-4.28t8.21-11.55q0-11.31-18.2-13.39-49.32-6.08-64.86-18.88T2317,265.92q0-23.21,18.05-38.35t50.59-15.15q25.78,0,41.25,10.15T2450.57,255.12Z"/><path class="cls-7" d="M2531.46,158.6v79.33q13.2-25.5,44-25.51,16.43,0,28.12,7.17T2620,238q4.76,11.28,4.75,33V378.55h-48v-91.8q0-16.46-1.29-22.59a18.5,18.5,0,0,0-5.86-10.24,16.55,16.55,0,0,0-11.48-4.12q-9,0-17.82,7t-8.83,29.93v91.8h-46.57V158.6Z"/><path class="cls-7" d="M2731.83,212.42q37.18,0,58,24.33t20.85,60.91q0,36.1-21.65,60.18t-57.54,24.09q-34.77,0-55.62-23.84t-20.84-61.23q0-26,9.41-44.07a78.18,78.18,0,0,1,25.84-29.25Q2706.71,212.43,2731.83,212.42Zm1.29,31.42q-13.66,0-20.57,10.56t-6.91,42q0,28.85,6.59,41.41t20.56,12.57q12.21,0,19.76-10.71t7.56-40.85q0-32.07-6.67-43.51T2733.12,243.84Z"/><path class="cls-7" d="M2895.13,253.19V322q0,12.9,3.85,17.24t18.13,4.35q6.58,0,15.25-.64v35.61q-21,3.54-30.14,3.54-30,0-42.53-11.52t-12.57-41.65V253.19h-25.78V215.81h28.52l3.86-48,41.41-3.22v51.24h35v37.38Z"/><path class="cls-7" d="M3101.55,305.23H2996.81q-.17,4.35-.16,7.58,0,17.4,9.26,26.26a30.93,30.93,0,0,0,22.16,8.86q24,0,28.84-25.62l43.51,3.23q-18.21,56.4-74,56.39-24.33,0-41.33-9.75t-28-28.44q-11-18.69-11-44.79,0-38.83,22.16-62.68t57-23.85q31.42,0,53.9,22.16T3101.55,305.23Zm-104.9-27.87h57.85q-2.27-33.51-27.56-33.52Q2999.87,243.84,2996.65,277.36Z"/><path class="cls-7" d="M3131.84,378.55V158.6h48v220Z"/><path class="cls-7" d="M3219.33,378.55V158.6h48v220Z"/><path class="cls-7" d="M3354.85,154.09v48h-48v-48Zm0,61.72V378.55h-48V215.81Z"/><text/><path class="cls-7" d="M1723.68,452.38v399.9h-92V687.34h-124.8V852.28h-92V452.38h92V608.24h124.8V452.38Z"/><path class="cls-7" d="M1922.46,550.23q67.61,0,105.51,44.24t37.9,110.74q0,65.63-39.36,109.42t-104.63,43.8q-63.23,0-101.12-43.36t-37.9-111.32q0-47.18,17.12-80.13a142.27,142.27,0,0,1,47-53.18Q1876.81,550.24,1922.46,550.23Zm2.35,57.13q-24.84,0-37.39,19.19t-12.57,76.32q0,52.44,12,75.29T1924.22,801q22.2,0,35.93-19.48t13.73-74.27q0-58.29-12.12-79.1T1924.81,607.36Z"/><path class="cls-7" d="M2205.62,852.28H2121V556.38h80v55.08q18.45-61.53,63.87-61.52,6.43,0,15.82.88V637q-26.67,0-41.46,8.2T2215,674.6q-9.37,21.24-9.37,57.27Z"/><path class="cls-7" d="M2413.92,852.28h-84.67V556.38h80v55.08q18.45-61.53,63.87-61.52,6.43,0,15.82.88V637q-26.67,0-41.46,8.2t-24.17,29.45q-9.37,21.24-9.37,57.27Z"/><path class="cls-7" d="M2660.16,550.23q67.61,0,105.5,44.24t37.91,110.74q0,65.63-39.37,109.42t-104.62,43.8q-63.23,0-101.12-43.36t-37.9-111.32q0-47.18,17.12-80.13a142.27,142.27,0,0,1,47-53.18Q2614.5,550.24,2660.16,550.23Zm2.34,57.13q-24.83,0-37.39,19.19t-12.56,76.32q0,52.44,12,75.29t37.4,22.85q22.18,0,35.92-19.48t13.73-74.27q0-58.29-12.12-79.1T2662.5,607.36Z"/><path class="cls-7" d="M3080.13,627.87l-63.58,17q-11.13-40.14-57.71-40.14-44,0-44,26.71a20.35,20.35,0,0,0,8.06,16.88q8,6.32,42,10.67,50.69,6.69,75,15.47A77.23,77.23,0,0,1,3078.52,704q14.2,20.81,14.21,51.27,0,45.71-34.72,74.41t-97.12,28.71q-113.08,0-135.06-87.59L2899.37,760q9.08,39.84,65.62,39.84,21.68,0,36.62-7.78t14.94-21q0-20.56-33.09-24.33-89.67-11.06-117.93-34.34t-28.27-64.89q0-42.19,32.81-69.73t92-27.54q46.88,0,75,18.46T3080.13,627.87Z"/></g></g></svg>