<svg xmlns="http://www.w3.org/2000/svg" width="3274.51" height="1200.59" viewBox="0 0 3274.51 1200.59"><defs><style>.cls-1{fill:#9b2929;stroke-width:16px;}.cls-1,.cls-2,.cls-3,.cls-6{stroke:#fff;}.cls-1,.cls-2,.cls-3,.cls-4,.cls-6{stroke-miterlimit:10;}.cls-2,.cls-3,.cls-5{fill:#231f20;}.cls-2{stroke-width:8px;}.cls-3{stroke-width:18px;}.cls-10,.cls-4,.cls-7{fill:#fff;}.cls-4{stroke:#231f20;}.cls-6{fill:none;stroke-width:4px;}.cls-7{font-size:330px;}.cls-10,.cls-7{font-family:FranklinGothic-Demi, Franklin Gothic Demi;font-weight:300;}.cls-8{letter-spacing:-0.02em;}.cls-9{letter-spacing:0em;}.cls-10{font-size:600px;}</style></defs><g id="Layer_2" data-name="Layer 2"><g id="Layer_1-2" data-name="Layer 1"><polygon class="cls-1" points="1222.79 224.94 12.76 10.39 104.5 240.43 809.98 365.53 681.17 467.8 73.22 350.24 117.86 515.49 529.24 588.43 404.32 687.62 99.81 633.62 117.58 726.11 321.97 753.01 120.6 858.08 73.22 1183.9 1210.39 421.01 1222.79 224.94"/><path class="cls-2" d="M617.17,813.82C573,805.11,532,787.14,494.83,760.91c-34.46-24.35-64.32-54.94-89.18-90.82a414.8,414.8,0,0,1-55.44-115,452.43,452.43,0,0,1,0-262.79,414.53,414.53,0,0,1,55.44-115c24.86-35.89,54.72-66.48,89.18-90.83C532,60.28,573,42.31,617.17,33.61A303.59,303.59,0,0,1,664.79,28a299.48,299.48,0,0,1,92,10.93c46.72,13,90.45,36.9,129.42,71.43,40.36,35.76,73.09,80.71,96.53,133.4,24.8,55.75,37.58,116.58,37.58,179.92S1007.5,547.88,982.7,603.63c-23.44,52.69-56.17,97.64-96.53,133.41-39,34.52-82.7,58.4-129.42,71.42A299.62,299.62,0,0,1,617.17,813.82Z"/><path class="cls-2" d="M559.53,830.35c-44.17-8.88-85.21-27.23-122.33-54-34.46-24.87-64.33-56.1-89.19-92.74a427.2,427.2,0,0,1-55.43-117.4,471,471,0,0,1,0-268.32A427.2,427.2,0,0,1,348,180.48c24.86-36.64,54.73-67.87,89.19-92.74,37.12-26.78,78.16-45.13,122.33-54A299.27,299.27,0,0,1,607.15,28a293.74,293.74,0,0,1,92,11.17c46.73,13.29,90.46,37.67,129.42,72.92,40.36,36.52,73.1,82.41,96.54,136.22,24.8,56.92,37.57,119,37.57,183.7s-12.77,126.78-37.57,183.7c-23.44,53.8-56.18,99.7-96.54,136.22-39,35.25-82.69,59.63-129.42,72.92A293.68,293.68,0,0,1,559.53,830.35Z"/><path class="cls-3" d="M477,844.42c-44.17-9-85.21-27.56-122.33-54.67-34.46-25.16-64.33-56.77-89.19-93.85a434.81,434.81,0,0,1-55.43-118.81,482.47,482.47,0,0,1,0-271.56,434.81,434.81,0,0,1,55.43-118.81c24.86-37.08,54.73-68.69,89.19-93.85C391.83,65.76,432.87,47.19,477,38.2a295,295,0,0,1,47.62-5.76,290.48,290.48,0,0,1,92,11.29C663.35,57.19,707.08,81.86,746,117.54c40.37,37,73.1,83.4,96.54,137.85,24.8,57.61,37.57,120.47,37.57,185.92s-12.77,128.31-37.57,185.91c-23.44,54.46-56.17,100.9-96.54,137.86-39,35.68-82.69,60.35-129.41,73.81A290.48,290.48,0,0,1,477,844.42Z"/><path class="cls-4" d="M750.52,437.31c0,185.41-129.57,315.79-269.68,294.25C358.62,712.78,270.44,582,270.44,437.31s88.18-275.47,210.4-294.26C621,121.52,750.52,251.9,750.52,437.31Z"/><g id="_Radial_Repeat_" data-name="&lt;Radial Repeat&gt;"><path class="cls-5" d="M482.51,499.12c-4.43-9.17-22.22-10.05-26-1.41,0,0-60.89,145.4-42.54,170,23.43,31.35,109,47.91,120.58,22.47C548.75,659,482.51,499.12,482.51,499.12Z"/></g><g id="_Radial_Repeat_2" data-name="&lt;Radial Repeat&gt;"><path class="cls-5" d="M443.83,476.66c2.8-9.71-7.73-27.23-15.32-25.6,0,0-121.26,29.41-123.1,60.16-2.29,38.28,40.34,121.1,60.83,118C391.63,625.43,443.83,476.66,443.83,476.66Z"/></g><g id="_Radial_Repeat_3" data-name="&lt;Radial Repeat&gt;"><path class="cls-5" d="M433.31,425.89c7.7-3.35,11.85-24.74,6-31.18,0,0-96.59-102.33-115.91-83.34-23.52,23.12-41.83,116.41-27.12,133.76C314.42,466.48,433.31,425.89,433.31,425.89Z"/></g><g id="_Radial_Repeat_4" data-name="&lt;Radial Repeat&gt;"><path class="cls-5" d="M458.08,383.23c7,5.5,23.23-4.29,23.66-14.4,0,0,4.42-174.44-21.43-181.3-31.3-8.32-102.94,41.08-103.63,69C355.86,290.12,458.08,383.23,458.08,383.23Z"/></g><g id="_Radial_Repeat_5" data-name="&lt;Radial Repeat&gt;"><path class="cls-5" d="M501.07,380.17c.86,10.63,17.44,20.51,24.33,14.37,0,0,124.63-116,113.07-149.48-14.24-41.27-98-83.63-118.17-62.67C496.5,207.13,501.07,380.17,501.07,380.17Z"/></g><g id="_Radial_Repeat_6" data-name="&lt;Radial Repeat&gt;"><path class="cls-5" d="M530.07,421.13c-6.39,7.61-2.52,30.07,5.71,33,0,0,154.2,50.14,171.35,17.87,21.79-41,2.15-158.39-26.41-165.09C647.23,299,530.07,421.13,530.07,421.13Z"/></g><g id="_Radial_Repeat_7" data-name="&lt;Radial Repeat&gt;"><path class="cls-5" d="M521.51,475c-8.76-1.51-20.55,15.73-17.34,25.25,0,0,59.78,167.81,89.67,166.13C632.42,664.2,700,581.87,688.1,550.91,673.88,514,521.51,475,521.51,475Z"/></g><path class="cls-6" d="M477,784.25c-38.13-6.68-73.78-21.77-106.2-44.44-30.25-21.16-56.59-48.13-78.6-80.07a372,372,0,0,1-49.36-103.33,415.17,415.17,0,0,1,0-238.2,371.84,371.84,0,0,1,49.36-103.33c22-31.94,48.35-58.91,78.6-80.07,32.42-22.67,68.07-37.76,106.2-44.45a247.4,247.4,0,0,1,119,8.1c39.31,12.52,75.86,34.41,108.25,65.37,33.37,31.89,60.29,71.47,79.5,117.48,20.25,48.52,30.66,101.22,30.66,156s-10.41,107.48-30.66,156c-19.21,46-46.13,85.59-79.5,117.48-32.39,31-68.94,52.84-108.25,65.37A247.28,247.28,0,0,1,477,784.25Z"/><text class="cls-7" transform="translate(1278.88 423.71)"><tspan class="cls-8">R</tspan><tspan x="211.25" y="0">engasho</tspan><tspan class="cls-9" x="1442.3" y="0">t</tspan><tspan x="1556.7" y="0">elli</tspan></text><text/><text class="cls-10" transform="translate(1274.76 897.44)">Horros</text></g></g></svg>