<svg xmlns="http://www.w3.org/2000/svg" width="3556.38" height="1367.34" viewBox="0 0 3556.38 1367.34"><defs><style>.cls-1,.cls-6{fill:#fff;}.cls-2{fill:#414042;}.cls-3{fill:#9b2929;}.cls-4,.cls-5,.cls-7{fill:#231f20;}.cls-4,.cls-5,.cls-8{stroke:#fff;}.cls-4,.cls-5,.cls-6,.cls-8{stroke-miterlimit:10;}.cls-4{stroke-width:8px;}.cls-5{stroke-width:18px;}.cls-6{stroke:#231f20;}.cls-8{fill:none;stroke-width:4px;}.cls-9{font-size:330px;}.cls-12,.cls-9{font-family:FranklinGothic-Demi, Franklin Gothic Demi;font-weight:300;}.cls-10{letter-spacing:-0.02em;}.cls-11{letter-spacing:0em;}.cls-12{font-size:600px;}</style></defs><g id="Layer_2" data-name="Layer 2"><g id="Layer_1-2" data-name="Layer 1"><rect class="cls-1" x="15" y="15" width="3526.38" height="1337.34" rx="55"/><path class="cls-2" d="M3486.38,30a40,40,0,0,1,40,40V1297.34a40,40,0,0,1-40,40H70a40,40,0,0,1-40-40V70A40,40,0,0,1,70,30H3486.38m0-30H70A70.08,70.08,0,0,0,0,70V1297.34a70.08,70.08,0,0,0,70,70H3486.38a70.08,70.08,0,0,0,70-70V70a70.08,70.08,0,0,0-70-70Z"/><polygon class="cls-3" points="1360.4 325 150.37 110.44 242.11 340.49 947.59 465.58 818.79 567.85 210.84 450.29 255.47 615.54 666.85 688.49 541.94 787.67 237.43 733.67 255.2 826.17 459.58 853.06 258.21 958.13 210.84 1283.96 1348.01 521.07 1360.4 325"/><path class="cls-4" d="M754.78,913.87c-44.17-8.7-85.21-26.67-122.33-52.9C598,836.62,568.12,806,543.26,770.14a414.51,414.51,0,0,1-55.43-115,452.43,452.43,0,0,1,0-262.79,414.78,414.78,0,0,1,55.43-115c24.86-35.88,54.73-66.47,89.19-90.82,37.12-26.23,78.16-44.2,122.33-52.91a306.27,306.27,0,0,1,47.62-5.58,299.9,299.9,0,0,1,92,10.94c46.72,13,90.45,36.89,129.41,71.42,40.36,35.77,73.1,80.71,96.54,133.41,24.8,55.75,37.57,116.58,37.57,179.92s-12.77,124.17-37.57,179.91c-23.44,52.7-56.18,97.65-96.54,133.41-39,34.53-82.69,58.41-129.41,71.43A299.79,299.79,0,0,1,754.78,913.87Z"/><path class="cls-4" d="M697.15,930.41c-44.17-8.89-85.22-27.24-122.34-54-34.46-24.86-64.32-56.1-89.18-92.74a427.17,427.17,0,0,1-55.44-117.39,471.29,471.29,0,0,1,0-268.33,427.3,427.3,0,0,1,55.44-117.39c24.86-36.64,54.72-67.88,89.19-92.74,37.11-26.78,78.16-45.13,122.33-54a299.12,299.12,0,0,1,47.62-5.69,293.73,293.73,0,0,1,92,11.16c46.72,13.3,90.45,37.67,129.42,72.93,40.36,36.52,73.09,82.41,96.53,136.21,24.8,56.92,37.58,119,37.58,183.7s-12.78,126.79-37.58,183.71c-23.44,53.8-56.17,99.7-96.53,136.21-39,35.26-82.7,59.64-129.42,72.93A293.68,293.68,0,0,1,697.15,930.41Z"/><path class="cls-5" d="M614.66,944.47c-44.17-9-85.21-27.56-122.33-54.66C457.86,864.64,428,833,403.14,796A434.85,434.85,0,0,1,347.7,677.14a482.44,482.44,0,0,1,0-271.55,434.85,434.85,0,0,1,55.44-118.81c24.86-37.09,54.72-68.69,89.19-93.86,37.12-27.1,78.16-45.67,122.33-54.67a297,297,0,0,1,47.62-5.76,290.4,290.4,0,0,1,92,11.3c46.72,13.45,90.46,38.12,129.42,73.8,40.36,37,73.09,83.41,96.53,137.86,24.8,57.6,37.58,120.47,37.58,185.91S1005,669.67,980.19,727.28c-23.44,54.45-56.17,100.9-96.53,137.86-39,35.67-82.7,60.35-129.42,73.8A290.19,290.19,0,0,1,614.66,944.47Z"/><path class="cls-6" d="M888.14,537.36c0,185.41-129.58,315.8-269.68,294.26C496.24,812.83,408.05,682,408.05,537.36S496.24,261.9,618.46,243.11C758.56,221.57,888.14,352,888.14,537.36Z"/><g id="_Radial_Repeat_" data-name="&lt;Radial Repeat&gt;"><path class="cls-7" d="M620.13,599.17c-4.43-9.17-22.22-10-26-1.4,0,0-60.89,145.39-42.54,170,23.43,31.35,108.95,47.91,120.57,22.46C686.37,759.06,620.13,599.17,620.13,599.17Z"/></g><g id="_Radial_Repeat_2" data-name="&lt;Radial Repeat&gt;"><path class="cls-7" d="M581.44,576.72c2.81-9.71-7.72-27.23-15.32-25.6,0,0-121.25,29.41-123.09,60.16-2.3,38.28,40.34,121.1,60.83,118C529.24,725.48,581.44,576.72,581.44,576.72Z"/></g><g id="_Radial_Repeat_3" data-name="&lt;Radial Repeat&gt;"><path class="cls-7" d="M570.93,525.94c7.7-3.34,11.85-24.74,6-31.18,0,0-96.59-102.32-115.91-83.34-23.52,23.12-41.84,116.41-27.12,133.77C452,566.54,570.93,525.94,570.93,525.94Z"/></g><g id="_Radial_Repeat_4" data-name="&lt;Radial Repeat&gt;"><path class="cls-7" d="M595.7,483.28c7,5.5,23.23-4.29,23.65-14.39,0,0,4.42-174.44-21.42-181.31-31.3-8.31-102.95,41.09-103.63,69C493.47,390.18,595.7,483.28,595.7,483.28Z"/></g><g id="_Radial_Repeat_5" data-name="&lt;Radial Repeat&gt;"><path class="cls-7" d="M638.68,480.23c.87,10.62,17.45,20.5,24.33,14.36,0,0,124.64-116,113.08-149.48-14.24-41.26-98-83.62-118.17-62.67C634.12,307.18,638.68,480.23,638.68,480.23Z"/></g><g id="_Radial_Repeat_6" data-name="&lt;Radial Repeat&gt;"><path class="cls-7" d="M667.68,521.19c-6.39,7.61-2.51,30.07,5.71,33,0,0,154.21,50.15,171.35,17.88,21.79-41,2.16-158.39-26.41-165.1C784.84,399.07,667.68,521.19,667.68,521.19Z"/></g><g id="_Radial_Repeat_7" data-name="&lt;Radial Repeat&gt;"><path class="cls-7" d="M659.13,575c-8.76-1.51-20.55,15.74-17.35,25.25,0,0,59.79,167.81,89.68,166.14C770,764.25,837.64,681.92,825.72,651,811.5,614.05,659.13,575,659.13,575Z"/></g><path class="cls-8" d="M614.66,884.31c-38.13-6.68-73.78-21.77-106.2-44.45-30.25-21.15-56.59-48.12-78.6-80.07A371.56,371.56,0,0,1,380.5,656.46a414.9,414.9,0,0,1,0-238.19,371.56,371.56,0,0,1,49.36-103.33c22-31.95,48.35-58.92,78.6-80.07,32.42-22.68,68.07-37.77,106.2-44.45a247.41,247.41,0,0,1,119,8.09c39.3,12.53,75.86,34.42,108.25,65.37,33.37,31.89,60.29,71.47,79.5,117.49,20.25,48.51,30.65,101.22,30.65,156s-10.4,107.48-30.65,156c-19.21,46-46.13,85.6-79.5,117.49-32.39,30.95-69,52.84-108.25,65.37A247.41,247.41,0,0,1,614.66,884.31Z"/><text class="cls-9" transform="translate(1416.49 523.77)"><tspan class="cls-10">R</tspan><tspan x="211.25" y="0">engasho</tspan><tspan class="cls-11" x="1442.3" y="0">t</tspan><tspan x="1556.7" y="0">elli</tspan></text><text/><text class="cls-12" transform="translate(1412.37 997.5)">Horros</text></g></g></svg>